<?xml version="1.0" standalone="no"?>
<!DOCTYPE svg PUBLIC "-//W3C//DTD SVG 20010904//EN"
 "http://www.w3.org/TR/2001/REC-SVG-20010904/DTD/svg10.dtd">
<svg version="1.0" xmlns="http://www.w3.org/2000/svg"
 width="169.000000pt" height="298.000000pt" viewBox="0 0 169.000000 298.000000"
 preserveAspectRatio="xMidYMid meet">

<g transform="translate(0.000000,298.000000) scale(0.100000,-0.100000)"
fill="White" stroke="none">
<path d="M0 1490 l0 -1490 845 0 845 0 0 1490 0 1490 -845 0 -845 0 0 -1490z
m270 275 c-7 -30 -17 -55 -22 -55 -11 0 -10 11 9 69 21 66 30 57 13 -14z m325
39 c0 -12 -8 -20 -22 -22 -15 -2 -23 -10 -23 -22 0 -10 -4 -22 -10 -25 -11 -7
-13 9 -4 53 9 42 59 56 59 16z m257 9 l-23 -16 23 -11 c33 -17 30 -50 -4 -54
-17 -2 -28 2 -28 8 0 7 6 10 13 7 8 -3 19 -2 26 3 9 5 3 11 -18 18 -17 6 -31
15 -31 21 0 12 40 41 55 40 5 0 0 -7 -13 -16z m173 5 c-28 -16 -35 -28 -35
-65 0 -18 -5 -33 -11 -33 -8 0 -10 15 -5 46 3 28 2 43 -4 39 -6 -3 -10 -2 -10
4 0 9 26 17 65 19 l20 1 -20 -11z m130 -18 c9 -27 -12 -70 -34 -70 -23 0 -32
19 -24 52 12 48 45 59 58 18z m140 20 c4 -6 2 -17 -5 -25 -7 -9 -8 -15 0 -20
23 -14 8 -23 -17 -9 -28 14 -28 14 -37 -21 -5 -19 -13 -35 -18 -35 -20 0 14
102 38 111 27 11 32 10 39 -1z m113 -14 c-16 -12 -16 -14 7 -24 40 -18 25 -63
-19 -61 -20 0 -20 1 2 11 28 14 28 22 -3 36 -31 14 -32 26 -3 46 26 18 41 10
16 -8z m-1014 -1 c5 -14 8 -14 29 0 13 8 26 13 29 10 7 -8 -14 -85 -24 -85
-10 0 -10 3 2 34 9 26 9 26 -14 10 -22 -14 -25 -14 -35 3 -9 16 -10 16 -11 -4
0 -13 -5 -23 -11 -23 -7 0 -8 7 -4 18 4 9 10 25 12 35 7 21 19 22 27 2z m338
-10 c9 -19 8 -29 -6 -50 -19 -29 -29 -31 -46 -10 -9 11 -9 22 0 50 13 41 36
45 52 10z m-92 -19 c0 -3 -4 -8 -10 -11 -5 -3 -10 -1 -10 4 0 6 5 11 10 11 6
0 10 -2 10 -4z m420 0 c0 -3 -4 -8 -10 -11 -5 -3 -10 -1 -10 4 0 6 5 11 10 11
6 0 10 -2 10 -4z m-466 -135 c-4 8 1 9 17 4 40 -13 49 -39 27 -78 -6 -12 -11
-38 -9 -58 l2 -35 -54 0 c-55 1 -55 1 -61 36 -3 19 -5 55 -5 80 1 37 2 41 9
20 7 -22 12 -24 9 -4 0 3 8 12 18 20 17 13 17 14 -2 8 -15 -4 -17 -4 -6 4 9 7
23 7 38 1 17 -6 22 -6 17 2z m530 -22 c-2 -4 4 -13 13 -20 15 -12 16 -12 10 4
-9 24 0 21 14 -4 8 -15 8 -19 0 -15 -14 9 -14 0 -1 -25 6 -10 16 -19 22 -19 7
0 6 6 -2 18 -7 9 9 -7 37 -35 27 -29 52 -53 54 -53 3 0 22 9 44 20 42 21 63
24 82 12 7 -4 -5 -7 -26 -7 -53 0 -86 -26 -122 -96 -28 -56 -29 -62 -15 -84 8
-12 13 -25 10 -27 -2 -3 -29 -1 -59 4 -36 5 -62 5 -75 -2 -25 -14 -30 -13 -30
6 0 14 -3 14 -15 4 -8 -7 -15 -23 -15 -36 0 -29 -18 -41 -27 -18 -4 11 -2 19
6 22 8 3 6 8 -6 17 -16 12 -16 17 -5 49 9 25 10 41 3 55 -6 11 -11 21 -11 23
0 13 136 11 161 -2 21 -12 25 -50 7 -68 -14 -14 -77 -16 -112 -2 -35 13 -33
-3 2 -20 30 -15 64 -14 104 2 20 7 29 20 34 43 8 43 2 52 -44 65 -47 13 -98
13 -123 0 -26 -15 -24 2 4 36 21 25 30 27 97 28 73 1 74 0 90 -29 8 -16 16
-32 18 -35 2 -2 7 2 12 10 7 11 1 21 -20 38 -17 13 -30 29 -30 36 0 14 -42 17
-51 3 -4 -5 -16 -6 -28 -2 -21 6 -21 8 -6 25 20 22 17 49 -7 64 -27 16 -53 -4
-53 -42 -1 -17 -4 -34 -7 -37 -8 -8 -3 79 5 91 3 5 19 9 35 9 17 0 28 -3 26
-6z m-249 -30 c-50 -7 -50 -7 15 -6 71 2 97 -7 81 -27 -6 -8 -39 -11 -93 -10
-106 2 -100 1 -96 21 4 21 38 31 98 30 l45 0 -50 -8z m252 -22 c-5 -16 -37
-21 -50 -8 -18 18 11 43 35 30 10 -6 17 -16 15 -22z m-471 -33 c-4 -14 -9 -24
-12 -21 -3 2 -2 17 2 31 3 15 9 25 11 22 3 -3 2 -17 -1 -32z m-306 11 c7 -9
20 -13 29 -10 9 2 22 1 29 -3 9 -6 5 -12 -13 -20 -15 -7 -24 -8 -20 -3 3 5 -5
11 -17 13 -13 2 -22 9 -20 16 1 6 -8 12 -19 12 -19 0 -21 -4 -15 -30 5 -26 2
-32 -18 -40 -25 -9 -62 -50 -71 -81 -4 -10 -15 -19 -26 -19 -10 0 -28 -9 -39
-20 -11 -11 -20 -17 -20 -12 0 16 16 31 40 37 15 4 33 21 45 43 11 20 34 44
52 52 25 12 31 20 26 37 -2 12 -2 27 2 32 9 16 41 13 55 -4z m86 -50 c-17 -25
-17 -28 0 -46 16 -18 17 -17 45 18 36 44 39 34 4 -11 -28 -37 -31 -54 -12 -80
12 -16 14 -16 31 3 15 17 31 21 76 21 61 0 80 -11 80 -47 0 -35 -41 -57 -97
-50 -26 3 -49 10 -51 16 -6 18 -22 13 -22 -7 0 -10 -4 -22 -9 -27 -5 -6 -11
-21 -14 -35 -4 -21 -4 -20 -6 7 0 17 4 35 9 38 6 3 10 14 10 24 0 25 -35 101
-60 134 -12 15 -16 27 -10 27 6 0 8 5 4 12 -4 6 -3 8 3 5 13 -8 26 20 17 36
-5 9 -3 8 6 0 11 -10 10 -17 -4 -38z m464 37 c0 -4 16 -14 35 -21 20 -7 43
-24 52 -37 l16 -25 20 31 c11 17 22 29 24 26 3 -3 -4 -17 -14 -33 -11 -15 -22
-34 -25 -42 -2 -9 -12 -1 -26 23 -26 45 -80 70 -126 60 -38 -8 -54 -20 -78
-59 -13 -22 -18 -25 -18 -12 0 25 53 77 79 77 11 0 23 5 26 10 7 12 35 13 35
2z m-194 -90 c14 -25 22 -31 38 -26 13 3 8 -3 -11 -15 -33 -21 -39 -37 -47
-131 -2 -25 -2 -2 0 51 2 81 0 100 -17 128 -11 18 -15 30 -9 26 5 -3 19 -23
30 -43 10 -20 19 -30 20 -21 0 9 -11 33 -25 53 -14 20 -25 42 -25 49 0 12 13
-7 46 -71z m177 24 c-3 -6 3 -3 14 7 25 22 32 22 60 -5 32 -30 29 -38 -9 -27
-49 14 -91 11 -118 -8 -20 -13 -22 -14 -13 -2 7 9 9 20 5 24 -4 5 -1 5 6 1 15
-9 45 12 36 25 -3 5 2 6 10 3 9 -3 13 -11 9 -18z m588 -38 c12 -24 26 -38 38
-38 28 0 51 -10 51 -23 0 -7 -4 -7 -12 1 -7 7 -24 12 -39 12 -19 0 -30 6 -34
19 -3 11 -17 37 -32 57 -14 22 -18 32 -8 24 9 -7 25 -31 36 -52z m-57 37 c21
-16 36 -82 25 -111 -6 -16 -8 -15 -8 8 -2 49 -70 73 -135 48 -35 -13 -34 4 3
41 33 32 82 39 115 14z m-1064 -5 c0 -6 10 -8 24 -4 18 4 28 -1 45 -22 11 -15
21 -30 21 -34 0 -3 -24 -2 -52 3 -36 6 -62 5 -80 -2 -24 -9 -28 -16 -28 -51 0
-53 32 -75 112 -75 52 0 58 -2 58 -21 0 -19 -6 -21 -64 -23 -74 -2 -97 8 -129
59 -50 81 -18 180 59 180 19 0 34 -5 34 -10z m305 -37 c19 -15 19 -15 -5 -9
-14 3 -41 6 -60 6 -33 1 -34 1 -16 15 21 16 48 12 81 -12z m325 -8 c33 -17 40
-54 15 -75 -15 -13 -92 -16 -126 -5 -24 8 -34 47 -19 74 8 17 20 21 56 21 25
0 58 -7 74 -15z m418 -51 c2 -17 -3 -36 -11 -42 -21 -18 -107 -28 -107 -13 0
7 -4 10 -9 7 -14 -9 -33 21 -27 42 9 28 44 41 101 39 48 -2 50 -3 53 -33z
m-953 1 c31 -30 31 -40 1 -60 -29 -19 -108 -12 -127 11 -6 8 -8 14 -4 14 4 0
2 6 -4 14 -24 28 -2 46 56 46 44 0 58 -5 78 -25z m-245 -14 c0 -11 -26 -22
-34 -14 -12 12 -5 23 14 23 11 0 20 -4 20 -9z m1340 1 c0 -11 -39 -12 -45 -1
-4 5 5 9 19 9 14 0 26 -4 26 -8z m-1413 -59 c-3 -10 -5 -4 -5 12 0 17 2 24 5
18 2 -7 2 -21 0 -30z m1294 14 c-10 -9 -11 -8 -5 6 3 10 9 15 12 12 3 -3 0
-11 -7 -18z m156 -59 c-2 -13 -4 -5 -4 17 -1 22 1 32 4 23 2 -10 2 -28 0 -40z
m-177 33 c0 -5 -11 -11 -25 -13 -14 -3 -25 -3 -25 -1 0 3 34 19 48 22 1 1 2
-3 2 -8z m-238 -30 c4 -25 1 -28 -23 -29 -18 0 -29 5 -32 16 -3 9 -5 1 -6 -19
-2 -64 -13 -98 -32 -104 -31 -10 -56 4 -62 34 -3 16 -9 40 -12 54 -6 23 -4 25
26 22 47 -3 65 4 79 31 19 35 56 32 62 -5z m-553 -5 c23 -24 23 -25 5 -55 -21
-36 -40 -42 -24 -8 9 17 6 16 -10 -5 -15 -20 -31 -28 -52 -28 -25 0 -29 -3
-25 -20 3 -13 0 -20 -9 -20 -8 0 -14 4 -14 9 0 20 13 41 25 41 7 0 15 6 18 13
3 9 8 9 21 -2 14 -12 16 -12 10 2 -3 8 -12 18 -20 21 -13 5 -12 10 3 33 31 50
41 52 72 19z m641 -2 c0 -20 -4 -25 -16 -20 -9 3 -19 6 -23 6 -4 0 -7 9 -8 20
-1 15 4 20 23 20 19 0 24 -5 24 -26z m-1123 -16 c-3 -7 -5 -2 -5 12 0 14 2 19
5 13 2 -7 2 -19 0 -25z m1333 19 c0 -8 -6 -14 -12 -14 -7 0 -17 -2 -23 -3 -5
-1 -19 -2 -30 -1 -16 2 -14 4 10 16 39 18 55 18 55 2z m-1030 -71 c0 -8 6 -17
13 -19 7 -3 7 -6 1 -6 -6 -1 -19 8 -29 19 -16 18 -16 20 -2 20 10 0 17 -6 17
-14z m-45 -26 l20 -25 -22 19 c-13 11 -23 24 -23 29 0 6 1 8 3 6 1 -2 11 -15
22 -29z m55 -25 c0 -8 -9 -15 -20 -15 -17 0 -19 2 -8 15 17 19 28 19 28 0z
m136 0 l29 -15 -26 0 c-15 0 -29 7 -33 15 -7 19 -5 19 30 0z m208 2 c-7 -18
-63 -45 -109 -52 l-40 -6 55 35 c56 36 104 48 94 23z m361 3 c3 -5 -1 -10 -9
-10 -9 0 -16 5 -16 10 0 6 4 10 9 10 6 0 13 -4 16 -10z"/>
<path d="M1114 1786 c-7 -28 2 -49 17 -41 12 8 12 52 -1 60 -5 3 -12 -5 -16
-19z"/>
<path d="M697 1793 c-4 -3 -7 -17 -7 -30 0 -33 24 -24 28 10 3 26 -7 35 -21
20z"/>
<path d="M545 1560 c-21 -40 -20 -40 25 -40 22 0 40 2 40 5 0 14 -32 65 -40
65 -5 0 -16 -13 -25 -30z m25 5 c-7 -9 -10 -19 -6 -22 4 -4 11 -2 15 6 7 10
10 9 14 -3 5 -12 0 -16 -23 -16 -28 0 -29 1 -18 25 6 14 16 25 21 25 5 0 4 -7
-3 -15z"/>
<path d="M621 1574 c0 -11 3 -14 6 -6 3 7 2 16 -1 19 -3 4 -6 -2 -5 -13z"/>
<path d="M792 1568 c2 -6 11 -13 19 -16 12 -3 12 -2 0 6 -11 8 -11 10 0 15 10
4 8 6 -4 6 -10 1 -17 -4 -15 -11z"/>
<path d="M953 1574 c3 -6 -21 -9 -61 -8 l-67 2 65 -7 c64 -7 94 -1 69 14 -7 5
-10 4 -6 -1z"/>
<path d="M1013 1173 c4 -20 11 -40 18 -43 16 -11 49 0 49 15 0 8 3 21 7 31 5
13 3 15 -7 9 -8 -5 -25 -9 -38 -10 -18 0 -22 4 -19 17 3 10 0 18 -5 18 -7 0
-8 -14 -5 -37z"/>
<path d="M555 1239 c-4 -6 -5 -12 -2 -15 2 -3 7 2 10 11 7 17 1 20 -8 4z"/>
<path d="M596 1225 c4 -8 10 -12 15 -9 11 6 2 24 -11 24 -5 0 -7 -7 -4 -15z"/>
</g>
</svg>
