<?xml version="1.0" standalone="no"?>
<!DOCTYPE svg PUBLIC "-//W3C//DTD SVG 20010904//EN"
 "http://www.w3.org/TR/2001/REC-SVG-20010904/DTD/svg10.dtd">
<svg version="1.0" xmlns="http://www.w3.org/2000/svg"
 width="300.000000pt" height="168.000000pt" viewBox="0 0 300.000000 168.000000"
 preserveAspectRatio="xMidYMid meet">

<g transform="translate(0.000000,168.000000) scale(0.100000,-0.100000)"
fill="#000000" stroke="none">
<path d="M2350 1559 c-61 -11 -110 -65 -110 -120 0 -36 -3 -40 -50 -64 -72
-36 -92 -88 -48 -119 23 -16 103 -22 111 -8 2 4 2 1 1 -6 -2 -7 3 -15 10 -18
8 -3 29 -35 47 -71 18 -37 48 -77 69 -94 28 -23 36 -36 35 -57 -3 -31 -35
-115 -42 -108 -3 2 5 26 16 51 25 56 26 61 7 45 -8 -6 -23 -32 -32 -56 -13
-35 -31 -55 -78 -89 -119 -85 -142 -120 -171 -263 -9 -46 -30 -111 -46 -145
-16 -34 -29 -71 -29 -82 0 -22 -20 -82 -34 -104 -11 -16 -11 -195 -1 -228 8
-26 35 -31 35 -8 0 8 5 15 11 15 6 0 9 -7 5 -15 -7 -19 -2 -19 32 1 23 14 24
14 8 0 -17 -14 22 -15 443 -16 l461 0 0 380 0 381 -26 35 c-14 18 -30 31 -35
28 -20 -12 -8 15 14 30 12 9 17 15 11 12 -6 -3 -25 4 -43 15 -32 20 -129 59
-144 59 -5 0 -6 -4 -2 -9 3 -5 1 -12 -5 -16 -5 -3 -10 -2 -10 3 0 6 -7 13 -16
16 -11 4 -27 -6 -49 -31 -21 -24 -34 -33 -39 -25 -4 7 -1 12 9 12 9 0 13 5 10
10 -4 6 -11 7 -17 4 -7 -4 -8 -2 -4 4 4 7 14 12 22 12 8 0 12 4 9 10 -3 5 1
20 9 32 24 34 19 44 -9 18 -14 -13 -25 -19 -25 -13 0 6 -14 16 -31 23 l-31 13
35 31 c20 17 38 40 40 51 3 16 7 14 20 -16 18 -41 69 -79 147 -109 30 -12 79
-35 108 -52 37 -21 52 -26 52 -15 0 13 -122 76 -180 92 -44 13 -95 57 -112 97
-9 21 -23 38 -31 38 -8 0 -18 19 -25 48 -9 39 -8 50 5 64 8 9 17 35 20 58 5
32 1 46 -14 63 -11 12 -30 50 -42 83 -22 60 -54 100 -98 123 -25 13 -107 13
-173 0z m216 -61 c24 -26 58 -108 45 -108 -4 0 -22 5 -39 11 -23 8 -38 24 -57
64 -15 29 -34 56 -43 60 -14 5 -15 4 -4 -6 6 -7 12 -17 12 -21 0 -10 -161 1
-173 12 -16 15 22 30 87 34 38 3 70 7 73 10 8 8 76 -30 99 -56z m-309 -85 c-3
-10 -5 -4 -5 12 0 17 2 24 5 18 2 -7 2 -21 0 -30z m303 -47 c34 -11 39 -15 20
-15 -15 -1 -32 -7 -40 -13 -8 -7 -11 -9 -7 -4 4 5 0 18 -10 28 -19 22 -20 21
37 4z m-50 -30 c0 -31 -14 -40 -30 -21 -15 18 -6 45 15 45 9 0 15 -9 15 -24z
m154 -51 c-7 -36 -24 -59 -34 -48 -4 4 -10 25 -13 45 -4 27 -1 42 10 54 15 15
18 15 30 -2 9 -12 11 -30 7 -49z m-74 19 c0 -8 4 -14 9 -14 14 0 24 -106 12
-128 -12 -22 -62 -43 -79 -33 -6 3 -9 28 -7 56 2 28 3 60 4 73 1 15 5 21 13
16 7 -4 8 -3 4 4 -10 17 12 52 29 46 8 -4 15 -12 15 -20z m-276 -101 c21 -64
83 -139 126 -156 12 -4 12 -6 -2 -6 -28 -1 -82 54 -117 119 -18 33 -28 60 -23
60 5 0 12 -8 16 -17z m334 -81 c8 -34 7 -46 -5 -57 -21 -21 -32 -19 -39 10 -6
22 21 103 31 93 2 -2 8 -23 13 -46z m-185 -129 c5 -26 4 -26 -9 -8 -16 22 -18
35 -5 35 5 0 11 -12 14 -27z m385 -87 c60 -21 96 -47 80 -57 -8 -5 -21 -1 -33
10 -23 21 -55 35 -72 32 -7 -1 -13 3 -13 9 0 6 -5 8 -12 4 -7 -4 -8 -3 -4 4 9
15 5 15 54 -2z m-483 -53 c-5 -10 -9 -21 -9 -25 -1 -3 -4 -9 -8 -13 -7 -7 -5
5 7 43 4 12 10 21 13 18 2 -3 1 -13 -3 -23z m-98 -69 c-43 -41 -85 -90 -92
-107 -8 -18 -14 -25 -15 -17 0 30 49 94 111 146 35 29 66 53 69 53 3 1 -30
-33 -73 -75z m389 51 c-7 -11 -22 -22 -32 -24 -11 -2 -15 1 -11 5 5 5 13 10
18 10 5 1 12 2 15 3 4 0 1 7 -6 15 -9 12 -8 15 9 13 18 -1 19 -3 7 -22z m-36
-55 c0 -5 -2 -10 -4 -10 -3 0 -8 5 -11 10 -3 6 -1 10 4 10 6 0 11 -4 11 -10z
m-27 -23 c3 -8 -1 -14 -8 -14 -7 0 -11 6 -8 14 3 7 6 13 8 13 2 0 5 -6 8 -13z
m-246 -24 c1 -22 -1 -24 -8 -10 -6 9 -7 22 -4 27 9 14 10 13 12 -17z m223 -12
c0 -5 -7 -12 -16 -15 -14 -5 -15 -4 -4 9 14 17 20 19 20 6z m-35 -61 c-3 -5
-14 -10 -23 -9 -14 0 -13 2 3 9 27 11 27 11 20 0z m-100 -28 c-3 -3 -11 0 -18
7 -9 10 -8 11 6 5 10 -3 15 -9 12 -12z m45 9 c0 -6 -5 -13 -12 -17 -6 -4 -8
-3 -4 4 3 5 0 13 -6 15 -8 3 -6 6 5 6 9 1 17 -3 17 -8z m-333 -58 c-3 -10 -5
-4 -5 12 0 17 2 24 5 18 2 -7 2 -21 0 -30z m423 -77 c0 -3 -4 -8 -10 -11 -5
-3 -10 -1 -10 4 0 6 5 11 10 11 6 0 10 -2 10 -4z m-450 -34 c0 -5 -7 -17 -15
-28 -14 -18 -14 -17 -4 9 12 27 19 34 19 19z m-67 -189 c-5 -13 -3 -15 13 -9
16 6 15 3 -4 -15 -19 -17 -23 -28 -18 -52 3 -16 6 -42 6 -57 0 -24 3 -27 23
-23 18 3 17 1 -6 -12 -16 -9 -31 -14 -35 -11 -10 11 -5 135 7 149 6 8 8 17 5
20 -3 3 -3 10 1 16 10 17 15 13 8 -6z"/>
<path d="M2630 1322 c0 -5 7 -13 16 -16 10 -4 14 -1 12 6 -5 15 -28 23 -28 10z"/>
<path d="M2632 1280 c0 -14 2 -19 5 -12 2 6 2 18 0 25 -3 6 -5 1 -5 -13z"/>
</g>
</svg>
