<?xml version="1.0" standalone="no"?>
<!DOCTYPE svg PUBLIC "-//W3C//DTD SVG 20010904//EN"
 "http://www.w3.org/TR/2001/REC-SVG-20010904/DTD/svg10.dtd">
<svg version="1.0" xmlns="http://www.w3.org/2000/svg"
 width="259.000000pt" height="194.000000pt" viewBox="0 0 259.000000 194.000000"
 preserveAspectRatio="xMidYMid meet">

<g transform="translate(0.000000,194.000000) scale(0.100000,-0.100000)"
fill="White" stroke="none">
<path d="M0 970 l0 -970 1295 0 1295 0 0 970 0 970 -1295 0 -1295 0 0 -970z
m1090 730 c0 -17 9 -56 19 -87 11 -32 23 -73 26 -92 11 -53 25 -17 25 64 0 76
7 115 21 115 5 0 9 -9 9 -19 0 -11 3 -27 6 -35 6 -15 8 -15 19 1 15 20 13 23
35 -49 11 -38 36 -66 47 -54 3 3 8 32 11 63 l5 57 29 -79 c33 -89 44 -106 63
-99 17 7 42 80 51 147 7 48 29 64 41 30 3 -10 13 -34 21 -53 l14 -35 9 30 c5
17 9 61 10 99 1 45 4 64 10 55 5 -8 9 -48 9 -89 0 -41 4 -89 8 -105 5 -17 5
-57 0 -90 -17 -125 -21 -267 -8 -275 8 -5 10 -14 5 -26 -21 -46 -6 -255 20
-280 11 -11 19 -13 28 -6 7 5 32 12 57 15 77 10 124 18 140 24 25 10 35 9 47
-7 11 -13 12 -13 13 3 0 10 5 15 10 12 7 -4 9 3 5 22 -5 22 -4 25 5 13 9 -11
13 -12 17 -2 2 6 9 12 15 12 6 0 3 -9 -7 -20 -25 -27 -14 -35 13 -9 13 11 19
25 16 31 -4 6 -3 8 3 5 14 -9 9 -88 -8 -117 -7 -14 -12 -28 -11 -33 3 -9 -84
-98 -117 -120 -14 -9 -22 -20 -18 -23 4 -4 19 3 34 17 18 16 22 17 11 4 -9
-11 -24 -39 -33 -62 -19 -49 -25 -51 -50 -23 -14 16 -15 20 -4 20 8 0 20 -5
26 -11 9 -9 11 -7 8 7 -2 11 -4 25 -4 32 -1 6 -7 12 -15 12 -7 0 -20 7 -27 16
-19 24 -51 33 -75 22 -19 -9 -55 -58 -61 -83 -13 -59 -13 -60 -5 -40 8 18 10
16 16 -13 9 -41 66 -102 95 -102 17 0 20 -5 16 -22 -6 -24 -1 -35 28 -57 15
-12 20 -11 37 4 20 18 20 17 20 -13 0 -17 -5 -34 -11 -38 -11 -6 -8 -55 5 -85
6 -14 1 -16 -38 -12 -29 4 -51 1 -61 -7 -12 -10 -24 -9 -64 8 -26 12 -66 24
-87 27 -21 4 -48 8 -59 10 -11 2 -22 4 -24 4 -3 1 0 6 7 13 26 26 7 83 -21 60
-9 -8 -12 -4 -14 15 -2 38 -18 49 -49 34 -19 -8 -30 -9 -38 -1 -5 5 -15 10
-20 10 -6 0 -1 -7 11 -15 15 -10 22 -25 20 -43 -1 -15 2 -39 6 -54 6 -25 3
-28 -46 -51 -29 -13 -70 -39 -92 -58 -35 -31 -43 -34 -105 -34 -57 0 -73 -4
-109 -29 -23 -16 -44 -26 -47 -23 -7 7 26 149 36 157 4 3 10 14 14 25 6 17 4
17 -18 -4 -15 -14 -26 -30 -26 -37 0 -7 -7 -19 -15 -28 -9 -8 -24 -34 -35 -58
l-19 -43 7 60 c4 33 7 101 7 150 -1 125 -19 157 -128 227 -41 26 -46 32 -35
47 12 14 11 14 -4 3 -13 -11 -21 -11 -39 -1 -22 12 -22 12 23 55 25 24 44 45
41 47 -2 3 0 8 5 11 5 3 8 -10 7 -29 -1 -23 3 -35 12 -35 7 0 13 4 13 9 0 5
11 8 25 7 23 -1 38 -26 16 -26 -14 0 -24 -79 -12 -94 6 -7 7 -17 3 -22 -4 -4
1 -3 10 5 9 7 25 32 34 57 9 24 23 44 30 44 8 0 14 4 14 9 0 4 20 7 45 6 35
-1 45 2 41 12 -4 8 -1 11 5 8 6 -4 8 -13 6 -19 -3 -7 -1 -19 4 -27 7 -11 9
-11 9 4 0 9 6 17 13 17 21 1 -36 39 -82 55 -51 17 -114 20 -141 5 -28 -15 -35
34 -12 90 19 50 49 69 38 25 l-7 -27 28 26 c15 15 36 29 46 32 11 3 16 12 13
20 -3 8 -2 13 3 10 5 -3 11 13 14 37 11 89 40 234 58 291 10 32 16 62 14 66
-3 5 2 39 11 77 9 37 19 91 23 119 6 45 5 51 -8 46 -14 -5 -14 -4 -1 13 14 17
13 18 -8 13 -23 -6 -23 -6 -21 103 l1 110 24 -26 c14 -15 24 -38 24 -55z m-80
-235 c0 -19 -4 -37 -10 -40 -5 -3 -10 -2 -10 4 0 5 -10 11 -22 13 -28 4 -28
19 -1 33 11 6 18 16 15 23 -2 7 2 10 12 6 10 -4 16 -18 16 -39z m-294 -334
c-4 -6 -14 -7 -23 -4 -12 5 -15 2 -10 -10 8 -22 4 -21 -17 2 -17 18 -16 19 13
17 17 -1 31 2 31 8 0 5 3 7 6 3 3 -3 3 -10 0 -16z m1301 -27 c-3 -3 -12 -4
-19 -1 -8 3 -5 6 6 6 11 1 17 -2 13 -5z m-67 -30 c0 -2 -9 0 -20 6 -11 6 -20
13 -20 16 0 2 9 0 20 -6 11 -6 20 -13 20 -16z m40 -44 c0 -5 -4 -10 -10 -10
-5 0 -10 5 -10 10 0 6 5 10 10 10 6 0 10 -4 10 -10z m-1506 -60 c-18 -7 -18
-7 2 -14 12 -3 30 -4 40 -1 10 3 6 -1 -11 -9 -27 -13 -31 -13 -42 2 -20 25
-16 41 9 34 21 -5 21 -6 2 -12z m222 -125 c-3 -8 0 -15 6 -15 6 0 9 -3 5 -6
-10 -11 -26 6 -20 21 3 8 7 15 10 15 3 0 3 -7 -1 -15z m16 -47 c-20 -20 -22
-20 -22 -5 0 10 5 15 10 12 6 -3 13 1 16 10 4 9 9 13 12 10 3 -3 -4 -15 -16
-27z m1278 -26 c0 -8 7 -20 16 -27 15 -11 15 -14 -2 -41 -10 -16 -27 -37 -38
-46 -19 -18 -19 -18 2 -18 28 0 28 -8 1 -36 -18 -19 -20 -29 -13 -61 7 -36 8
-36 12 -10 3 23 6 26 18 16 11 -9 11 -15 3 -25 -13 -16 -4 -34 17 -34 21 0 17
-18 -7 -30 -17 -9 -25 -8 -42 7 l-22 18 19 -23 c18 -21 18 -24 3 -39 -14 -14
-18 -14 -33 -3 -14 12 -18 12 -30 -5 -8 -10 -14 -28 -15 -39 0 -17 -3 -15 -14
9 -28 66 -28 75 -2 75 14 0 31 7 38 16 11 13 11 20 -2 43 -15 25 -15 29 2 50
17 20 18 21 29 4 10 -16 11 -16 5 2 -4 11 -9 26 -12 33 -3 6 0 12 7 12 6 0 8
5 4 12 -4 6 -8 25 -10 42 -1 17 -12 38 -24 48 -24 19 -26 14 40 67 27 21 50
13 50 -17z m-1020 -82 c0 -5 -4 -10 -9 -10 -6 0 -13 5 -16 10 -3 6 1 10 9 10
9 0 16 -4 16 -10z m-40 -10 c0 -5 -2 -10 -4 -10 -3 0 -8 5 -11 10 -3 6 -1 10
4 10 6 0 11 -4 11 -10z m798 -9 c2 -7 -13 -11 -45 -11 -43 1 -46 2 -30 15 21
15 69 13 75 -4z m-857 -209 c18 -39 23 -65 23 -147 1 -161 -17 -165 -24 -5 -5
126 -7 138 -34 185 -24 41 -25 47 -8 32 11 -11 31 -40 43 -65z m690 -208 c8
-4 -15 -13 -57 -22 -38 -7 -115 -28 -171 -47 -57 -18 -103 -30 -103 -26 0 9
37 44 70 64 62 39 218 58 261 31z m-391 -113 c0 -13 -50 -51 -67 -51 -22 0
-54 43 -40 52 17 11 107 10 107 -1z"/>
<path d="M1176 897 c-18 -28 -10 -74 16 -88 29 -16 48 -4 48 31 0 62 -39 96
-64 57z"/>
<path d="M1358 909 c-26 -15 -35 -77 -14 -97 16 -16 19 -15 42 11 26 30 31 66
12 85 -14 14 -18 14 -40 1z"/>
<path d="M1185 736 c-8 -19 -12 -51 -9 -75 3 -26 1 -41 -6 -41 -7 0 -9 -8 -5
-21 6 -19 4 -21 -19 -17 -15 3 -29 2 -32 -3 -9 -14 57 -41 90 -36 24 3 36 -1
54 -20 27 -29 46 -21 37 15 -5 22 -4 24 9 13 12 -10 16 -11 16 -1 0 7 7 10 15
6 20 -7 19 3 -2 26 -13 14 -13 18 -2 18 8 0 25 -16 38 -35 13 -19 27 -32 31
-30 5 3 32 -9 61 -26 51 -29 54 -16 5 20 -19 14 -19 15 0 22 13 4 7 7 -20 7
-26 0 -42 6 -49 17 -9 17 -23 31 -62 60 -20 15 -20 15 5 35 14 11 31 20 38 20
8 0 10 9 6 28 -12 47 -21 52 -106 52 l-79 0 -14 -34z"/>
<path d="M1003 653 c9 -2 23 -2 30 0 6 3 -1 5 -18 5 -16 0 -22 -2 -12 -5z"/>
<path d="M1092 635 c0 -16 2 -22 5 -12 2 9 2 23 0 30 -3 6 -5 -1 -5 -18z"/>
<path d="M988 615 c-19 -26 -24 -85 -8 -85 6 0 19 15 30 33 34 54 13 101 -22
52z"/>
<path d="M1211 451 c-7 -5 -12 -14 -10 -20 3 -7 15 -3 34 9 25 16 27 20 10 20
-11 0 -26 -4 -34 -9z"/>
<path d="M1135 349 c-4 -6 -5 -12 -2 -15 2 -3 7 2 10 11 7 17 1 20 -8 4z"/>
</g>
</svg>
