<?xml version="1.0" standalone="no"?>
<!DOCTYPE svg PUBLIC "-//W3C//DTD SVG 20010904//EN"
 "http://www.w3.org/TR/2001/REC-SVG-20010904/DTD/svg10.dtd">
<svg version="1.0" xmlns="http://www.w3.org/2000/svg"
 width="225.000000pt" height="144.000000pt" viewBox="0 0 225.000000 144.000000"
 preserveAspectRatio="xMidYMid meet">

<g transform="translate(0.000000,144.000000) scale(0.100000,-0.100000)"
fill="Red" stroke="none">
<path d="M446 1174 c-10 -26 -7 -62 7 -67 10 -4 10 -6 0 -6 -10 -1 -13 -29
-13 -105 0 -57 3 -111 6 -120 5 -13 22 -16 84 -16 l78 0 7 41 c5 30 3 44 -6
51 -11 7 -11 11 -1 15 6 2 12 20 12 39 0 28 -5 36 -26 44 -36 14 -39 13 -53
-16 -10 -22 -9 -28 4 -38 22 -16 9 -86 -16 -86 -21 0 -26 25 -29 138 -1 65 2
83 14 88 21 8 56 -13 50 -31 -5 -11 2 -15 25 -15 28 0 31 3 31 31 0 60 -13 69
-94 69 -58 0 -75 -3 -80 -16z"/>
<path d="M969 1188 c-6 -20 -4 -55 5 -60 8 -5 7 -8 -1 -8 -10 0 -13 -32 -12
-130 l0 -130 30 0 c29 0 29 0 29 60 0 61 13 80 24 35 4 -15 14 -25 24 -25 11
0 13 -3 5 -8 -6 -4 -9 -19 -6 -35 4 -21 11 -27 30 -27 20 0 29 11 53 63 l29
62 1 -62 0 -63 35 0 36 0 -3 121 c-1 66 -6 123 -9 125 -4 2 -5 22 -2 44 l6 40
-36 0 c-30 0 -37 -4 -46 -31 -15 -44 -14 -57 7 -62 15 -4 15 -5 0 -6 -9 0 -27
-23 -41 -51 l-25 -50 -12 35 c-8 25 -17 35 -32 35 -17 0 -18 2 -8 15 14 17 8
79 -11 101 -9 11 -67 21 -70 12z"/>
<path d="M1280 1150 c0 -23 5 -40 11 -40 8 0 8 -4 0 -14 -8 -9 -10 -41 -7 -93
2 -43 5 -93 5 -110 l1 -33 80 0 c78 0 80 1 80 24 0 27 -16 36 -44 26 -29 -10
-56 18 -56 57 0 32 1 33 45 33 41 0 45 2 45 25 0 23 -4 25 -45 25 l-45 0 0 46
c0 46 0 46 30 41 20 -4 30 -2 30 5 0 9 3 9 12 0 19 -19 28 -14 28 18 l0 30
-85 0 -85 0 0 -40z"/>
<path d="M1502 1178 c-14 -14 -16 -146 -3 -167 6 -9 20 -12 42 -9 51 8 59 1
59 -49 0 -40 -2 -44 -22 -41 -15 2 -24 11 -26 26 -3 17 -10 22 -32 22 -27 0
-28 -2 -25 -42 1 -24 3 -46 4 -50 0 -5 35 -8 76 -8 73 0 76 1 86 28 7 19 7 32
0 44 -7 11 -7 19 -1 23 14 9 12 58 -2 78 -8 9 -31 17 -58 19 -38 3 -45 7 -50
28 -8 30 8 60 32 60 13 0 18 -8 18 -25 0 -22 4 -25 35 -25 24 0 35 5 35 15 0
8 -6 15 -12 15 -10 0 -10 2 0 8 9 7 10 15 3 35 -10 26 -14 27 -79 27 -40 0
-73 -5 -80 -12z"/>
<path d="M691 1060 l-2 -120 67 0 67 0 -6 -113 c-5 -84 -4 -117 6 -126 9 -11
9 -14 0 -18 -7 -3 -13 -18 -13 -34 0 -22 5 -29 20 -29 11 0 20 -4 20 -10 0 -5
-7 -10 -15 -10 -19 0 -21 -60 -2 -79 10 -11 10 -14 0 -18 -9 -3 -13 -26 -13
-64 l0 -60 40 3 40 2 0 93 0 93 65 0 65 0 0 30 0 30 -65 0 -65 0 0 50 c0 49 1
50 31 50 17 0 39 5 50 10 13 7 19 7 19 0 0 -5 9 -10 21 -10 17 0 20 5 17 33
l-3 32 -70 3 c-45 1 -75 7 -84 17 -10 10 -11 15 -3 15 8 0 11 47 11 175 l0
175 -34 0 -35 0 0 -90 0 -90 -30 0 -30 0 0 90 0 90 -34 0 -33 0 -2 -120z"/>
<path d="M1088 794 c-15 -14 -9 -74 7 -74 8 0 15 -3 15 -6 0 -3 -7 -12 -15
-20 -17 -18 -20 -70 -5 -79 8 -5 8 -11 1 -19 -6 -7 -8 -16 -5 -19 4 -4 6 -49
5 -102 l-1 -96 41 3 c36 2 40 4 38 27 0 15 0 49 1 76 l2 50 34 -72 33 -73 48
1 c26 1 40 3 31 6 -10 2 -15 10 -11 19 3 8 1 14 -5 14 -5 0 -12 17 -15 38 -3
20 -8 45 -12 55 -5 12 -2 17 8 17 8 0 17 10 21 23 9 36 6 201 -4 217 -7 11
-34 16 -107 18 -54 2 -101 0 -105 -4z m140 -131 l3 -63 -31 0 -30 0 0 66 0 65
28 -3 c26 -3 27 -6 30 -65z"/>
<path d="M1360 752 c0 -26 5 -53 12 -60 9 -9 9 -12 -1 -12 -13 0 -14 -87 -4
-232 l6 -68 37 0 c20 0 65 3 99 6 l61 7 0 33 c0 28 -4 34 -21 34 -11 0 -30 -5
-42 -11 -16 -9 -22 -9 -25 0 -2 6 -10 11 -18 11 -8 0 -14 8 -14 18 0 9 -3 34
-7 55 l-6 38 37 -6 c58 -11 86 0 86 35 0 30 0 30 -60 30 l-60 0 0 50 0 50 43
1 c52 2 48 2 70 -6 14 -6 17 -1 17 34 l0 41 -105 0 -105 0 0 -48z"/>
<path d="M1610 762 c0 -21 7 -48 16 -60 8 -12 10 -22 5 -22 -11 0 -14 -183 -4
-257 5 -42 6 -43 43 -43 20 0 65 3 99 6 l62 7 -3 31 c-3 33 -14 37 -72 21 -21
-6 -27 -5 -22 4 4 6 1 11 -7 11 -14 0 -27 40 -27 86 0 20 4 22 34 17 19 -3 47
-2 61 1 21 5 26 12 23 34 -3 25 -6 27 -60 30 l-58 3 0 49 0 50 35 0 c20 0 35
5 35 12 0 6 8 4 19 -6 26 -24 41 -13 41 30 l0 34 -110 0 -110 0 0 -38z"/>
</g>
</svg>
